# xmcd
#
# Track frame offsets:
#	150
#	13452
#	25668
#	34337
#	51023
#	62064
#	81018
#	99441
#	111035
#	129314
#
# Disc length: 1885 seconds
#
# Revision: 0
# Processed by: cddbd v1.5.2PL0 Copyright (c) Steve Scherf et al.
# Submitted via: EasyCDDAExtractor 11.5.3.1
#
DISCID=7a075b0a
DTITLE=Leiana - No Going Back
DYEAR=2006
DGENRE=
TTITLE0=2 B Unkind
TTITLE1=Can't Reply
TTITLE2=Couldn't Tell
TTITLE3=Suffer
TTITLE4=Whichside
TTITLE5=Bitter
TTITLE6=Friend
TTITLE7=Me Again
TTITLE8=No Going Back
TTITLE9=Da Vault
EXTD=
EXTT0=
EXTT1=
EXTT2=
EXTT3=
EXTT4=
EXTT5=
EXTT6=
EXTT7=
EXTT8=
EXTT9=
PLAYORDER=
